<svg id="Camada_1" data-name="Camada 1" xmlns="http://www.w3.org/2000/svg" viewBox="0 0 500 500"><defs><style>.cls-1{fill:#28261d;}</style></defs><title>Logo 4-2</title><path class="cls-1" d="M104.13,149.77H38a16,16,0,0,0-16,16v63.92l0,0,0,0V232a16,16,0,0,0,16,16h66.15a16,16,0,0,0,16-16V165.81A16,16,0,0,0,104.13,149.77Zm10.69,16v54.77a.6.6,0,0,1-1.09.34l-3.2-4.63a8.52,8.52,0,0,1-1.42-5.43q0-.47,0-1v-44.1a16,16,0,0,0-4.07-10.64A10.7,10.7,0,0,1,114.83,165.81ZM93.11,155.12a10.69,10.69,0,0,1,10.69,10.69v44.1A10.69,10.69,0,0,1,93.11,220.6H49a10.69,10.69,0,0,1-10.69-10.69v-44.1A10.69,10.69,0,0,1,49,155.12ZM49,225.95h44.1a15.32,15.32,0,0,0,2-.13,2.91,2.91,0,0,1,3.1,2l4,11.43a2.59,2.59,0,0,1-2.45,3.44H42.09a2.59,2.59,0,0,1-2.45-3.44l4-11.47a2.9,2.9,0,0,1,3.11-2A15.71,15.71,0,0,0,49,225.95ZM27.29,165.81A10.7,10.7,0,0,1,37,155.16,16,16,0,0,0,33,165.81v44.1q0,.37,0,.74a8.76,8.76,0,0,1-1.57,5.4l-3,4.39a.6.6,0,0,1-1.09-.34Zm.52,69.26a6.33,6.33,0,0,1,.86-5.43l5.42-8.06a2.37,2.37,0,0,1,3.62-.31q.37.36.76.71a2.3,2.3,0,0,1,.64,2.5l-4.94,14.19a2.22,2.22,0,0,1-3.65.89A11.29,11.29,0,0,1,27.82,235.07Zm79.89,3.87-5-14.24a2.35,2.35,0,0,1,.73-2.56q.39-.33.76-.69a2.36,2.36,0,0,1,3.6.33l5.73,8.31a5.81,5.81,0,0,1,.79,5,10.78,10.78,0,0,1-3.06,4.79A2.23,2.23,0,0,1,107.7,238.93Z"/><path class="cls-1" d="M206.39,149.77H140.24a16,16,0,0,0-16,16v63.92l0,0,0,0V232a16,16,0,0,0,16,16h66.15a16,16,0,0,0,16-16V165.81A16,16,0,0,0,206.39,149.77Zm10.69,16v54.77a.6.6,0,0,1-1.09.34l-3.2-4.63a8.52,8.52,0,0,1-1.42-5.43q0-.47,0-1v-44.1a16,16,0,0,0-4.07-10.64A10.7,10.7,0,0,1,217.09,165.81Zm-21.72-10.69a10.69,10.69,0,0,1,10.69,10.69v44.1a10.69,10.69,0,0,1-10.69,10.69h-44.1a10.69,10.69,0,0,1-10.69-10.69v-44.1a10.69,10.69,0,0,1,10.69-10.69Zm-44.1,70.83h44.1a15.32,15.32,0,0,0,2-.13,2.91,2.91,0,0,1,3.1,2l4,11.43a2.59,2.59,0,0,1-2.45,3.44h-57.6a2.59,2.59,0,0,1-2.45-3.44l4-11.47a2.9,2.9,0,0,1,3.11-2A15.71,15.71,0,0,0,151.27,225.95Zm-21.72-60.14a10.7,10.7,0,0,1,9.75-10.64,16,16,0,0,0-4.07,10.64v44.1q0,.37,0,.74a8.76,8.76,0,0,1-1.57,5.4l-3,4.39a.6.6,0,0,1-1.09-.34Zm.52,69.26a6.33,6.33,0,0,1,.86-5.43l5.42-8.06a2.37,2.37,0,0,1,3.62-.31q.37.36.76.71a2.3,2.3,0,0,1,.64,2.5l-4.94,14.19a2.22,2.22,0,0,1-3.65.89A11.29,11.29,0,0,1,130.08,235.07ZM210,238.93l-5-14.24a2.35,2.35,0,0,1,.73-2.56q.39-.33.76-.69a2.36,2.36,0,0,1,3.6.33l5.73,8.31a5.81,5.81,0,0,1,.79,5,10.78,10.78,0,0,1-3.06,4.79A2.23,2.23,0,0,1,210,238.93Z"/><path class="cls-1" d="M308.65,149.77H242.5a16,16,0,0,0-16,16v63.92l0,0,0,0V232a16,16,0,0,0,16,16h66.15a16,16,0,0,0,16-16V165.81A16,16,0,0,0,308.65,149.77Zm10.69,16v54.77a.6.6,0,0,1-1.09.34l-3.2-4.63a8.52,8.52,0,0,1-1.42-5.43q0-.47,0-1v-44.1a16,16,0,0,0-4.07-10.64A10.7,10.7,0,0,1,319.34,165.81Zm-21.72-10.69a10.69,10.69,0,0,1,10.69,10.69v44.1a10.69,10.69,0,0,1-10.69,10.69h-44.1a10.69,10.69,0,0,1-10.69-10.69v-44.1a10.69,10.69,0,0,1,10.69-10.69Zm-44.1,70.83h44.1a15.32,15.32,0,0,0,2-.13,2.91,2.91,0,0,1,3.1,2l4,11.43a2.59,2.59,0,0,1-2.45,3.44h-57.6a2.59,2.59,0,0,1-2.45-3.44l4-11.47a2.9,2.9,0,0,1,3.11-2A15.71,15.71,0,0,0,253.53,225.95Zm-21.72-60.14a10.7,10.7,0,0,1,9.75-10.64,16,16,0,0,0-4.07,10.64v44.1q0,.37,0,.74a8.76,8.76,0,0,1-1.57,5.4l-3,4.39a.6.6,0,0,1-1.09-.34Zm.52,69.26a6.33,6.33,0,0,1,.86-5.43l5.42-8.06a2.37,2.37,0,0,1,3.62-.31q.37.36.76.71a2.3,2.3,0,0,1,.64,2.5l-4.94,14.19a2.22,2.22,0,0,1-3.65.89A11.29,11.29,0,0,1,232.33,235.07Zm79.89,3.87-5-14.24a2.35,2.35,0,0,1,.73-2.56q.39-.33.76-.69a2.36,2.36,0,0,1,3.6.33l5.73,8.31a5.81,5.81,0,0,1,.79,5,10.78,10.78,0,0,1-3.06,4.79A2.23,2.23,0,0,1,312.22,238.93Z"/><path class="cls-1" d="M410.91,149.77H344.76a16,16,0,0,0-16,16v63.92l0,0,0,0V232a16,16,0,0,0,16,16h66.15a16,16,0,0,0,16-16V165.81A16,16,0,0,0,410.91,149.77Zm10.69,16v54.77a.6.6,0,0,1-1.09.34l-3.2-4.63a8.52,8.52,0,0,1-1.42-5.43q0-.47,0-1v-44.1a16,16,0,0,0-4.07-10.64A10.7,10.7,0,0,1,421.6,165.81Zm-21.72-10.69a10.69,10.69,0,0,1,10.69,10.69v44.1a10.69,10.69,0,0,1-10.69,10.69h-44.1a10.69,10.69,0,0,1-10.69-10.69v-44.1a10.69,10.69,0,0,1,10.69-10.69Zm-44.1,70.83h44.1a15.32,15.32,0,0,0,2-.13,2.91,2.91,0,0,1,3.1,2l4,11.43a2.59,2.59,0,0,1-2.45,3.44h-57.6a2.59,2.59,0,0,1-2.45-3.44l4-11.47a2.9,2.9,0,0,1,3.11-2A15.71,15.71,0,0,0,355.79,225.95Zm-21.72-60.14a10.7,10.7,0,0,1,9.75-10.64,16,16,0,0,0-4.07,10.64v44.1q0,.37,0,.74a8.76,8.76,0,0,1-1.57,5.4l-3,4.39a.6.6,0,0,1-1.09-.34Zm.52,69.26a6.33,6.33,0,0,1,.86-5.43l5.42-8.06a2.37,2.37,0,0,1,3.62-.31q.37.36.76.71a2.3,2.3,0,0,1,.64,2.5L341,238.66a2.22,2.22,0,0,1-3.65.89A11.29,11.29,0,0,1,334.59,235.07Zm79.89,3.87-5-14.24a2.35,2.35,0,0,1,.73-2.56q.39-.33.76-.69a2.36,2.36,0,0,1,3.6.33l5.73,8.31a5.81,5.81,0,0,1,.79,5,10.78,10.78,0,0,1-3.06,4.79A2.23,2.23,0,0,1,414.48,238.93Z"/><path class="cls-1" d="M359.78,252H293.63a16,16,0,0,0-16,16V332l0,0,0,0v2.17a16,16,0,0,0,16,16h66.15a16,16,0,0,0,16-16V268A16,16,0,0,0,359.78,252Zm10.69,16v54.77a.6.6,0,0,1-1.09.34l-3.2-4.63a8.52,8.52,0,0,1-1.42-5.43q0-.47,0-1V268a16,16,0,0,0-4.07-10.64A10.7,10.7,0,0,1,370.47,268Zm-21.72-10.69A10.69,10.69,0,0,1,359.45,268v44.1a10.69,10.69,0,0,1-10.69,10.69h-44.1A10.69,10.69,0,0,1,294,312.14V268a10.69,10.69,0,0,1,10.69-10.69Zm-44.1,70.83h44.1a15.32,15.32,0,0,0,2-.13,2.91,2.91,0,0,1,3.1,2l4,11.43a2.59,2.59,0,0,1-2.45,3.44h-57.6a2.59,2.59,0,0,1-2.45-3.44l4-11.47a2.9,2.9,0,0,1,3.11-2A15.71,15.71,0,0,0,304.66,328.18ZM282.94,268a10.7,10.7,0,0,1,9.75-10.64A16,16,0,0,0,288.62,268v44.1q0,.37,0,.74a8.76,8.76,0,0,1-1.57,5.4l-3,4.39a.6.6,0,0,1-1.09-.34Zm.52,69.26a6.33,6.33,0,0,1,.86-5.43l5.42-8.06a2.37,2.37,0,0,1,3.62-.31q.37.36.76.71a2.3,2.3,0,0,1,.64,2.5l-4.94,14.19a2.22,2.22,0,0,1-3.65.89A11.29,11.29,0,0,1,283.46,337.3Zm79.89,3.87-5-14.24a2.35,2.35,0,0,1,.73-2.56q.39-.33.76-.69a2.36,2.36,0,0,1,3.6.33l5.73,8.31a5.81,5.81,0,0,1,.79,5,10.78,10.78,0,0,1-3.06,4.79A2.23,2.23,0,0,1,363.35,341.17Z"/><path class="cls-1" d="M462,252H395.89a16,16,0,0,0-16,16V332l0,0,0,0v2.17a16,16,0,0,0,16,16H462a16,16,0,0,0,16-16V268A16,16,0,0,0,462,252Zm10.69,16v54.77a.6.6,0,0,1-1.09.34l-3.2-4.63A8.52,8.52,0,0,1,467,313.1q0-.47,0-1V268A16,16,0,0,0,463,257.4,10.7,10.7,0,0,1,472.73,268ZM451,257.35A10.69,10.69,0,0,1,461.71,268v44.1A10.69,10.69,0,0,1,451,322.83h-44.1a10.69,10.69,0,0,1-10.69-10.69V268a10.69,10.69,0,0,1,10.69-10.69Zm-44.1,70.83H451a15.32,15.32,0,0,0,2-.13,2.91,2.91,0,0,1,3.1,2l4,11.43a2.59,2.59,0,0,1-2.45,3.44H400a2.59,2.59,0,0,1-2.45-3.44l4-11.47a2.9,2.9,0,0,1,3.11-2A15.71,15.71,0,0,0,406.92,328.18ZM385.2,268A10.7,10.7,0,0,1,395,257.4,16,16,0,0,0,390.88,268v44.1q0,.37,0,.74a8.76,8.76,0,0,1-1.57,5.4l-3,4.39a.6.6,0,0,1-1.09-.34Zm.52,69.26a6.33,6.33,0,0,1,.86-5.43l5.42-8.06a2.37,2.37,0,0,1,3.62-.31q.37.36.76.71a2.3,2.3,0,0,1,.64,2.5l-4.94,14.19a2.22,2.22,0,0,1-3.65.89A11.29,11.29,0,0,1,385.72,337.3Zm79.89,3.87-5-14.24a2.35,2.35,0,0,1,.73-2.56q.39-.33.76-.69a2.36,2.36,0,0,1,3.6.33l5.73,8.31a5.81,5.81,0,0,1,.79,5,10.78,10.78,0,0,1-3.06,4.79A2.23,2.23,0,0,1,465.61,341.17Z"/><path class="cls-1" d="M59.27,174.28,82.75,174a1.74,1.74,0,0,1,1.75,1.72l0,3.61a1.74,1.74,0,0,1-1.72,1.75l-5.57.06a1.74,1.74,0,0,0-1.72,1.75l.18,18.14A1.74,1.74,0,0,1,74,202.83l-5.39.05a1.74,1.74,0,0,1-1.75-1.72L66.67,183a1.74,1.74,0,0,0-1.76-1.72l-5.57.06a1.74,1.74,0,0,1-1.76-1.72l0-3.61A1.74,1.74,0,0,1,59.27,174.28Z"/><path class="cls-1" d="M160.93,174.29l5.61-.06a1.74,1.74,0,0,1,1.5.83l3.85,6.3a1.74,1.74,0,0,0,3,0L178.6,175a1.74,1.74,0,0,1,1.48-.86l5.56-.06a1.74,1.74,0,0,1,1.47,2.69l-8.92,13.63a1.74,1.74,0,0,0-.28,1l.1,9.75a1.74,1.74,0,0,1-1.72,1.75l-5.41.05a1.74,1.74,0,0,1-1.75-1.72l-.1-9.75a1.74,1.74,0,0,0-.3-1L159.52,177A1.74,1.74,0,0,1,160.93,174.29Z"/><path class="cls-1" d="M265.36,175.94a1.74,1.74,0,0,1,1.72-1.75l13-.13q4.82,0,7.24,2.22a8.59,8.59,0,0,1,2.47,6.5,8.86,8.86,0,0,1-2.54,6.82q-2.59,2.47-8,2.53l-3.12,0a1.74,1.74,0,0,0-1.72,1.75l.07,7.17a1.74,1.74,0,0,1-1.72,1.75l-5.43.05a1.74,1.74,0,0,1-1.75-1.72Zm9,8.67a1.74,1.74,0,0,0,1.75,1.72h.43a5.58,5.58,0,0,0,3.59-.93,2.87,2.87,0,0,0,1-2.29,3.19,3.19,0,0,0-.92-2.28q-.91-.93-3.4-.91H276a1.74,1.74,0,0,0-1.72,1.75Z"/><path class="cls-1" d="M377.27,194.92l5-.05a1.74,1.74,0,0,1,1.75,1.72l0,4.51a1.74,1.74,0,0,1-1.72,1.75l-5,.05a1.74,1.74,0,0,1-1.75-1.72l0-4.51A1.74,1.74,0,0,1,377.27,194.92Z"/><path class="cls-1" d="M323.84,277.22l5.41-.05a1.74,1.74,0,0,1,1.75,1.72l.26,25.22a1.74,1.74,0,0,1-1.72,1.75l-5.41.05a1.74,1.74,0,0,1-1.75-1.72L322.12,279A1.74,1.74,0,0,1,323.84,277.22Z"/><path class="cls-1" d="M414.09,291.71q-.07-7,3.8-11t10.86-4q7.16-.07,11.08,3.73t4,10.74a17.67,17.67,0,0,1-1.61,8.27,12,12,0,0,1-4.84,5.06,16.12,16.12,0,0,1-8,1.87,18.33,18.33,0,0,1-8.05-1.46,12.09,12.09,0,0,1-5.21-4.84A16.25,16.25,0,0,1,414.09,291.71Zm8.87-.05q0,4.35,1.68,6.23a6.11,6.11,0,0,0,8.82-.05Q435,296,435,291.15q0-4.05-1.7-5.91a5.59,5.59,0,0,0-4.45-1.82,5.38,5.38,0,0,0-4.29,1.94Q422.91,287.28,423,291.66Z"/></svg>